<svg xmlns="http://www.w3.org/2000/svg" viewBox="0 0 256 256"><defs><style>.a{fill:#2b2b2b;}.b{fill:#fff;}.c{fill:#39b54a;}</style></defs><rect class="a" width="256" height="256" rx="32"/><path class="b" d="M22.1,123.5c16.3,0,18.6-9,18.6-17a141.4,141.4,0,0,0-1.8-19.4,135.7,135.7,0,0,1-1.8-19c0-21.2,13.8-30.2,33.3-30.2h4.8V50.6H71.1c-13.6,0-18.2,7.3-18.2,19.8a103.3,103.3,0,0,0,1.6,16.3,99,99,0,0,1,1.6,17.5c.3,14.7-6.2,22-16.5,24.8v.5c10.3,2.5,16.8,10.3,16.5,25A97.3,97.3,0,0,1,54.5,172a107.1,107.1,0,0,0-1.6,16.6c0,12.9,5.3,20,18.2,20h4.1v12.6H70.4c-19.1,0-33.3-8.2-33.3-31.5a132.9,132.9,0,0,1,1.8-18.8,131.5,131.5,0,0,0,1.8-18.7c0-7.1-2.3-17-18.6-17Z"/><path class="b" d="M237.4,135.2c-16.4,0-18.7,9.9-18.7,17s1,12.5,1.9,18.7a132.9,132.9,0,0,1,1.8,18.8c0,23.3-14.5,31.5-33.3,31.5h-4.8V208.6h3.9c12.8-.2,18.4-7.1,18.4-20,0-5.5-1-10.8-1.7-16.6a106.8,106.8,0,0,1-1.8-17.5c0-14.7,6.4-22.5,16.6-25V129c-10.2-2.8-16.6-10.1-16.6-24.8a109.1,109.1,0,0,1,1.8-17.5c.7-5.5,1.7-11.1,1.7-16.3,0-12.5-4.9-19.6-18.2-19.8h-4.1V37.9h4.5c19.6,0,33.6,9,33.6,30.2a135.7,135.7,0,0,1-1.8,19c-.9,6.5-1.9,12.9-1.9,19.4,0,8,2.3,17,18.7,17Z"/><circle class="c" cx="128" cy="128" r="58.8"/><path class="b" d="M95,132.3l10.8-7A146.2,146.2,0,0,1,118,149.7h.4c7.2-24,18.4-45.2,31.2-58.4l10.4,9c-12.6,11.8-25,30.6-33.2,60.2L111,162.3A120.6,120.6,0,0,0,95,132.3Z"/></svg>